<?xml version="1.0" standalone="no"?>
<!DOCTYPE svg PUBLIC "-//W3C//DTD SVG 20010904//EN"
 "http://www.w3.org/TR/2001/REC-SVG-20010904/DTD/svg10.dtd">
<svg version="1.0" xmlns="http://www.w3.org/2000/svg"
 width="1024.000000pt" height="1024.000000pt" viewBox="0 0 1024.000000 1024.000000"
 preserveAspectRatio="xMidYMid meet">
<metadata>
Created by potrace 1.14, written by Peter Selinger 2001-2017
</metadata>
<g transform="translate(0.000000,1024.000000) scale(0.100000,-0.100000)"
fill="#000000" stroke="none">
<path d="M0 5375 c0 -4722 1 -4865 18 -4865 11 0 26 -8 36 -18 14 -16 15 -32
10 -104 l-7 -84 -28 4 -29 4 0 -156 0 -156 5120 0 5120 0 0 5120 0 5120 -5120
0 -5120 0 0 -4865z m7283 2637 c16 -18 22 -40 19 -74 -2 -22 -41 -42 -122 -63
-128 -33 -211 -100 -271 -217 -45 -90 -59 -165 -58 -328 l0 -145 90 -75 c50
-41 159 -146 243 -233 l152 -158 105 22 c137 28 259 64 325 95 80 38 158 114
196 192 31 63 33 72 33 177 0 99 -3 116 -27 168 -19 39 -25 67 -22 86 4 17 -1
41 -11 61 -28 54 -108 127 -155 141 -50 15 -56 26 -35 65 17 33 20 96 5 125
-15 26 -88 26 -141 -2 -47 -24 -63 -16 -86 40 -13 31 -13 36 4 59 39 52 70 66
149 70 45 3 86 -1 104 -8 85 -35 142 -178 106 -261 -5 -12 -1 -18 18 -23 39
-10 104 -93 156 -201 65 -133 83 -206 83 -330 0 -161 -45 -266 -162 -379 -107
-102 -199 -140 -456 -186 -66 -12 -122 -24 -124 -26 -2 -2 19 -36 46 -76 163
-239 325 -626 368 -883 19 -113 20 -115 44 -115 32 0 116 -49 168 -99 118
-112 176 -259 153 -384 -26 -138 -159 -312 -280 -367 -30 -14 -58 -29 -61 -34
-4 -5 -10 -32 -13 -60 -14 -110 -48 -276 -77 -376 -52 -179 -79 -246 -211
-531 l-36 -75 92 -12 c178 -24 287 -73 391 -176 151 -149 198 -342 141 -570
-32 -126 -65 -184 -157 -279 -54 -56 -75 -85 -72 -98 17 -62 -49 -179 -121
-216 -66 -34 -197 -12 -229 39 -30 47 -30 65 2 100 l29 33 40 -23 c50 -28 86
-28 113 -1 18 18 21 30 17 90 -3 63 -2 70 17 75 82 24 159 126 206 273 28 86
30 106 27 191 -6 118 -33 185 -110 266 -78 83 -209 141 -368 164 -36 6 -75 13
-87 16 -18 5 -28 -3 -55 -42 -65 -95 -182 -228 -346 -395 -92 -94 -175 -187
-184 -207 -48 -102 6 -298 107 -391 71 -65 161 -104 243 -103 77 0 112 -22
112 -68 0 -94 -167 -106 -333 -23 -83 41 -135 87 -187 165 -43 64 -90 197 -90
254 0 41 -6 42 -32 9 -36 -46 -219 -165 -369 -240 -152 -77 -290 -134 -399
-165 -36 -10 -103 -30 -150 -44 -140 -41 -240 -58 -296 -51 l-52 6 -31 -55
c-56 -96 -182 -205 -275 -236 -74 -24 -205 59 -325 205 -64 79 -66 80 -107 77
-60 -4 -275 41 -423 90 -234 75 -396 151 -594 276 -65 41 -119 73 -121 71 -1
-2 -29 -42 -61 -89 -118 -173 -185 -234 -314 -290 -137 -60 -218 -70 -601 -80
-190 -4 -379 -11 -421 -15 -59 -6 -82 -4 -105 8 -61 32 -61 37 -11 344 26 153
53 334 62 403 36 287 72 391 183 529 45 55 159 130 237 156 33 11 61 20 62 20
1 1 -19 50 -46 111 -136 305 -226 619 -246 862 -7 76 -9 82 -30 82 -50 0 -174
109 -231 202 -92 150 -109 337 -41 458 68 123 198 225 284 223 18 -1 35 2 38
6 2 4 11 54 20 111 22 135 99 360 185 535 67 140 199 348 249 394 l25 24 -129
34 c-289 76 -420 162 -504 332 -44 88 -56 146 -56 261 1 124 24 214 86 328 46
86 105 162 126 162 12 0 13 6 7 23 -21 60 5 164 55 221 45 51 146 70 246 45
82 -21 135 -102 101 -154 -30 -45 -48 -47 -95 -9 -104 81 -207 9 -157 -110 22
-52 20 -63 -11 -70 -95 -24 -228 -199 -169 -222 12 -5 11 -12 -4 -48 -30 -66
-43 -174 -31 -243 16 -84 66 -176 126 -231 86 -78 283 -168 423 -192 l73 -13
141 141 c78 78 192 183 254 234 l113 93 1 132 c0 146 -17 259 -51 325 -53 106
-151 187 -274 228 -63 21 -105 56 -105 87 0 8 11 25 25 38 63 64 263 -4 384
-129 112 -117 160 -270 161 -508 0 -54 11 -80 25 -59 10 18 187 123 295 177
239 118 479 200 734 250 l138 27 19 -24 18 -24 50 56 c60 67 169 150 235 180
36 15 57 19 91 13 56 -8 95 -34 229 -151 58 -51 110 -93 115 -93 6 0 16 9 25
21 18 26 33 24 266 -32 238 -58 383 -110 615 -219 101 -47 141 -70 291 -166
l52 -33 5 25 c2 14 5 74 6 132 1 59 6 126 12 150 31 140 114 270 220 344 114
81 302 124 342 80z m-4339 -287 c109 -46 237 -241 221 -337 -10 -58 -64 -108
-116 -108 -75 0 -145 52 -219 162 -56 84 -76 156 -58 211 15 47 64 87 108 87
15 0 44 -7 64 -15z m4445 -10 c41 -36 65 -102 58 -165 -14 -118 -138 -264
-236 -277 -85 -12 -174 65 -174 150 0 79 91 216 186 281 66 45 121 48 166 11z
m324 -341 c82 -57 112 -176 67 -265 -29 -56 -87 -117 -134 -141 -59 -30 -143
-22 -193 18 -62 50 -77 78 -81 149 -4 55 0 73 22 120 29 57 111 140 149 149
56 12 128 -1 170 -30z m-4999 1 c78 -53 135 -139 136 -206 1 -128 -106 -235
-213 -215 -82 15 -180 113 -208 206 -22 73 25 172 106 222 46 28 133 25 179
-7z m4953 -4134 c43 -27 110 -113 123 -159 25 -93 2 -182 -63 -239 -82 -72
-209 -46 -301 64 -87 104 -63 252 53 330 45 30 141 32 188 4z m-401 -369 c21
-16 60 -51 85 -79 76 -81 97 -138 77 -205 -47 -159 -246 -157 -355 5 -57 84
-56 182 3 247 57 63 130 75 190 32z m-7042 -2497 c12 -13 14 -33 9 -115 -3
-55 -3 -100 1 -100 12 0 86 45 86 52 0 4 -9 12 -19 17 -18 10 -46 69 -37 78 7
7 70 -28 83 -46 34 -45 5 -109 -66 -146 -33 -17 -36 -17 -67 0 -41 22 -44 34
-44 178 0 113 1 117 19 107 11 -5 26 -17 35 -25z"/>
<path d="M5039 7771 c-98 -30 -99 -36 -99 -416 l0 -315 24 0 c24 0 24 2 31
118 4 64 5 206 1 315 l-7 197 31 31 c25 25 36 30 58 24 15 -3 36 -15 47 -26
19 -19 20 -30 17 -333 -3 -203 0 -316 6 -320 6 -3 17 -3 26 0 14 5 16 43 16
333 0 361 1 351 -67 385 -35 17 -45 18 -84 7z"/>
<path d="M4750 7613 c-540 -91 -949 -257 -1320 -536 -205 -155 -528 -484 -647
-662 -198 -295 -329 -634 -368 -951 l-7 -52 -72 -4 c-88 -4 -132 -32 -167
-105 -12 -27 -35 -63 -51 -81 -55 -64 -30 -236 39 -266 15 -7 23 -22 27 -56 9
-71 84 -130 164 -130 l39 0 6 -102 c15 -265 130 -674 264 -943 32 -62 27 -59
52 -45 33 17 91 -4 132 -47 20 -21 57 -67 82 -103 25 -36 70 -92 101 -125 l56
-60 33 40 c62 77 113 120 187 159 41 21 76 40 78 42 6 4 -50 87 -88 128 -65
70 -129 175 -210 341 -93 191 -132 298 -170 466 -26 112 -36 186 -56 417 l-6
62 -334 0 c-387 0 -367 -5 -379 98 -13 112 -48 102 371 102 l364 0 0 38 c0 53
22 137 73 287 52 151 64 180 123 297 134 268 304 485 540 688 122 105 179 144
349 242 234 133 501 226 771 268 38 6 81 13 97 16 l27 6 0 294 c0 162 -3 293
-7 293 -5 -1 -46 -8 -93 -16z m-30 -488 c0 -30 -2 -55 -4 -55 -23 0 -188 -37
-291 -66 -411 -115 -822 -375 -1094 -692 -94 -109 -260 -363 -323 -493 -30
-63 -77 -178 -104 -256 -47 -138 -50 -143 -77 -143 -18 0 -26 4 -22 11 4 6 14
38 21 72 31 131 155 414 246 561 137 221 323 435 510 587 127 103 143 116 203
156 156 106 365 207 570 275 93 31 305 89 358 97 4 0 7 -24 7 -54z m-1892
-1804 c2 -12 1 -34 -2 -47 l-6 -24 -300 0 c-165 0 -300 4 -300 9 0 4 21 7 48
6 27 -1 32 -1 12 2 -50 6 -56 17 -25 46 27 24 29 25 218 26 105 1 194 4 196 7
3 3 39 3 81 2 70 -3 75 -5 78 -27z m-541 -380 c10 -14 14 -14 25 -2 8 8 8 11
1 7 -6 -3 -14 -2 -18 3 -3 6 86 10 245 11 138 0 256 1 263 3 8 1 13 -16 15
-51 l3 -52 -270 0 -271 1 -25 43 c-14 23 -25 48 -25 53 0 15 42 3 57 -16z
m549 -310 c-6 -9 33 -196 57 -271 77 -243 237 -539 371 -687 l56 -61 -34 -21
c-40 -25 -46 -26 -46 -6 0 7 -6 18 -13 22 -16 10 -112 138 -163 218 -46 73
-151 292 -193 400 -32 84 -95 305 -106 367 -5 34 -4 37 22 41 50 7 54 7 49 -2z"/>
<path d="M2280 5310 c12 -8 12 -10 -5 -10 -15 0 -17 -2 -6 -9 12 -7 86 7 78
16 -2 1 -21 5 -43 8 -27 3 -34 2 -24 -5z"/>
<path d="M2380 5310 c19 -6 21 -8 6 -9 -11 -1 -17 -3 -14 -6 3 -3 20 -2 39 2
33 7 33 7 9 14 -14 4 -34 7 -45 7 -16 0 -15 -2 5 -8z"/>
<path d="M2396 4933 c-6 -14 4 -15 91 -10 54 4 118 7 143 8 33 0 40 2 25 8
-11 5 -72 9 -137 9 -98 1 -117 -1 -122 -15z"/>
<path d="M2270 4910 c0 -5 5 -10 10 -10 6 0 10 5 10 10 0 6 -4 10 -10 10 -5 0
-10 -4 -10 -10z"/>
<path d="M2544 4905 c-17 -13 -17 -14 -2 -15 9 0 20 5 23 10 4 6 11 8 16 5 5
-4 9 -1 9 4 0 16 -23 13 -46 -4z"/>
<path d="M2300 4890 c-6 -11 -8 -20 -6 -20 3 0 10 9 16 20 6 11 8 20 6 20 -3
0 -10 -9 -16 -20z"/>
<path d="M2328 4873 c7 -3 16 -2 19 1 4 3 -2 6 -13 5 -11 0 -14 -3 -6 -6z"/>
<path d="M2493 4873 c9 -2 23 -2 30 0 6 3 -1 5 -18 5 -16 0 -22 -2 -12 -5z"/>
<path d="M5290 7326 l0 -296 43 0 c55 0 196 -25 320 -56 314 -79 677 -280 915
-508 29 -28 57 -52 62 -54 15 -5 173 -192 227 -267 197 -277 343 -630 360
-872 l5 -73 372 -2 371 -3 3 -35 c2 -19 1 -63 -3 -97 l-7 -63 -367 0 -368 0
-1 -57 c-2 -147 -41 -362 -103 -568 -66 -218 -230 -527 -380 -718 -107 -135
-281 -304 -424 -413 -172 -130 -469 -278 -690 -342 -77 -23 -250 -59 -305 -64
-26 -2 -35 -7 -34 -20 1 -10 2 -135 3 -279 1 -231 3 -260 16 -255 9 3 62 13
118 22 388 60 769 208 1122 434 77 49 146 94 153 100 6 6 12 26 12 45 0 27 6
37 35 55 36 22 272 267 367 380 191 228 336 463 428 696 72 179 141 451 155
604 14 155 12 150 51 150 43 0 105 31 133 66 14 18 21 41 21 70 0 42 2 45 41
61 51 20 69 58 69 144 0 69 -22 117 -57 126 -14 3 -26 15 -29 32 -13 52 -44
90 -100 117 -38 19 -63 25 -84 20 -27 -5 -30 -3 -30 22 0 62 -33 235 -66 352
-85 299 -253 618 -450 855 -277 334 -505 514 -895 704 -334 163 -623 247 -946
276 l-63 6 0 -295z m240 -165 c389 -98 746 -268 1000 -476 71 -59 229 -217
308 -308 97 -113 254 -355 333 -514 46 -94 174 -441 165 -450 -2 -2 -25 0 -51
4 l-47 8 -23 90 c-62 241 -187 488 -373 734 -114 152 -324 344 -502 460 -130
85 -341 197 -445 237 -120 45 -327 105 -390 112 l-60 7 0 57 c0 32 2 58 5 58
3 0 39 -9 80 -19z m2288 -1854 c70 -67 83 -63 -253 -65 -285 -2 -304 -1 -303
15 1 10 -2 34 -5 53 l-7 35 268 -3 267 -4 33 -31z m-248 -347 l277 0 -19 -40
c-35 -69 -38 -70 -268 -70 -113 0 -227 3 -255 6 l-50 6 3 55 c3 43 7 53 19 49
8 -3 140 -6 293 -6z m-260 -341 c0 -6 -9 -56 -21 -112 -85 -421 -408 -934
-814 -1296 -133 -118 -352 -255 -553 -345 -184 -82 -448 -166 -467 -148 -3 3
-5 21 -5 41 l0 36 133 39 c245 73 496 188 687 314 96 64 256 199 346 293 295
309 555 797 609 1147 7 41 8 42 46 42 22 0 39 -5 39 -11z"/>
<path d="M4853 6844 c-303 -36 -616 -137 -835 -268 -364 -217 -621 -485 -787
-821 -80 -160 -130 -306 -157 -450 -28 -146 -25 -513 4 -675 41 -225 142 -481
265 -669 65 -99 204 -272 261 -325 17 -16 60 -56 96 -90 66 -62 254 -199 345
-251 292 -168 638 -255 1014 -255 246 0 430 27 641 96 405 130 773 423 1015
809 170 271 286 611 304 894 10 148 6 320 -10 446 -31 242 -142 515 -297 735
-137 195 -418 448 -632 567 -382 215 -819 307 -1227 257z m248 -124 c15 -23
16 -38 8 -155 -5 -71 -12 -136 -14 -142 -2 -7 -17 -13 -33 -13 -16 0 -34 6
-40 13 -5 6 -12 75 -14 153 -2 111 0 145 11 158 20 23 60 16 82 -14z m-211
-199 c0 -121 5 -113 -75 -126 -64 -11 -235 -54 -300 -76 -94 -33 -278 -123
-368 -182 -196 -128 -320 -256 -442 -457 -95 -156 -145 -288 -172 -453 l-16
-98 -116 3 -116 3 2 48 c6 188 117 475 261 676 238 334 588 577 1005 698 95
28 267 65 330 72 4 1 7 -48 7 -108z m482 89 c490 -84 891 -339 1162 -739 142
-208 246 -503 246 -693 l0 -48 -114 0 -113 0 -6 88 c-13 179 -87 383 -200 554
-132 198 -389 409 -630 517 -114 51 -284 101 -388 114 l-99 11 0 108 c0 86 3
108 14 108 8 0 65 -9 128 -20z m-303 -381 c11 -12 37 -56 57 -98 51 -104 179
-283 282 -396 92 -99 322 -356 368 -410 61 -72 274 -352 280 -369 5 -13 -92
-171 -166 -271 -78 -105 -236 -288 -318 -368 -111 -107 -154 -125 -313 -133
-73 -4 -136 -12 -153 -20 -33 -16 -41 -10 -53 35 -5 20 4 33 62 85 l68 61 98
5 c90 5 100 7 136 36 61 49 274 300 393 464 19 27 42 52 52 57 14 7 10 17 -30
80 -48 73 -155 205 -317 392 -317 366 -435 512 -449 559 -8 22 -26 31 -26 11
0 -23 -237 -312 -399 -484 -41 -44 -101 -114 -134 -155 -33 -41 -92 -113 -132
-160 -80 -96 -175 -220 -175 -230 0 -3 8 -15 18 -26 10 -10 29 -35 42 -54 43
-61 183 -232 241 -295 31 -33 64 -71 75 -84 10 -13 45 -43 78 -67 58 -44 59
-44 141 -44 l82 0 51 -51 c77 -77 75 -73 58 -114 -15 -34 -16 -35 -38 -21 -15
9 -73 17 -158 24 -136 9 -136 9 -202 51 -140 88 -413 415 -517 618 l-52 101
157 189 c86 103 256 300 378 436 122 137 252 292 290 344 62 87 186 297 186
315 0 15 19 8 39 -13z m402 -1161 l98 -96 -57 -59 c-102 -103 -367 -404 -370
-419 -3 -10 7 -14 33 -14 l36 0 -18 -32 c-23 -41 -148 -168 -165 -168 -32 0
-168 159 -168 195 0 3 18 5 40 5 24 0 40 5 40 12 0 6 -80 93 -179 192 -98 100
-197 202 -219 227 l-41 46 45 44 c100 96 441 482 457 518 11 23 18 16 191
-165 99 -104 223 -232 277 -286z m-1807 -33 c28 -26 33 -56 13 -77 -19 -19
-508 -18 -531 1 -22 18 -20 28 9 57 l25 25 177 -7 c149 -5 184 -4 213 9 49 22
63 20 94 -8z m2827 9 c12 -15 35 -16 197 -11 179 5 183 5 209 -17 21 -18 25
-28 19 -51 l-7 -28 -112 6 c-62 4 -166 3 -232 -2 -139 -10 -168 -3 -173 43 -7
55 66 99 99 60z m-2974 -262 c2 -67 51 -263 89 -359 108 -274 312 -527 555
-690 118 -79 267 -157 377 -197 85 -30 253 -66 311 -66 l41 0 0 -96 0 -97 -82
6 c-291 22 -606 154 -895 375 -73 56 -228 206 -271 262 -111 145 -232 369
-281 522 -33 103 -71 297 -71 360 l0 38 113 0 112 0 2 -58z m3260 -14 c-32
-369 -228 -758 -523 -1037 -196 -185 -372 -290 -628 -376 -107 -35 -304 -75
-373 -75 l-36 0 7 46 c3 26 6 70 6 98 l0 52 89 11 c172 22 452 137 611 251
300 217 506 511 590 847 16 61 29 139 31 175 2 36 5 68 7 73 2 4 53 7 114 7
l111 0 -6 -72z m-1653 -722 c69 -21 124 -63 157 -121 68 -118 17 -221 -154
-307 l-28 -14 1 -215 c0 -119 -2 -223 -6 -232 -8 -21 -43 -22 -69 -3 -18 13
-19 29 -20 232 l0 217 -70 43 c-74 45 -107 79 -130 133 -36 83 1 176 94 233
78 48 144 58 225 34z"/>
<path d="M5008 5293 c-9 -16 -71 -89 -138 -163 -67 -74 -129 -145 -137 -158
-15 -22 -12 -26 138 -177 84 -85 159 -155 165 -155 7 0 24 15 39 33 15 17 83
89 152 159 113 115 124 130 112 145 -8 10 -70 76 -138 148 -68 71 -133 145
-143 163 -24 39 -29 40 -50 5z"/>
<path d="M5000 3933 c-36 -24 -40 -33 -40 -86 0 -91 83 -138 147 -83 25 21 28
31 27 80 0 44 -5 61 -24 81 -28 30 -74 33 -110 8z"/>
<path d="M2690 3496 c-182 -41 -308 -134 -386 -288 -25 -50 -68 -248 -79 -363
-8 -96 -54 -406 -65 -444 -5 -19 -5 -31 1 -31 5 0 9 6 9 13 0 7 37 55 83 107
147 167 138 153 154 248 40 232 142 493 223 566 22 20 44 36 50 36 5 0 21 -15
35 -34 l26 -34 -26 -52 c-27 -52 -100 -321 -93 -342 3 -9 358 351 366 371 1 5
-35 49 -80 98 -46 49 -97 106 -115 126 -17 20 -35 37 -40 36 -4 -1 -33 -7 -63
-13z"/>
<path d="M3476 3493 c-3 -3 -6 -14 -6 -24 0 -34 -57 -86 -107 -98 -27 -7 -64
-16 -83 -22 -40 -10 -102 -65 -216 -194 -45 -49 -126 -135 -181 -190 -172
-173 -495 -516 -491 -521 3 -2 53 18 111 45 181 86 299 137 405 176 l102 37 0
44 c0 55 21 109 48 123 12 6 39 11 60 11 32 0 45 -6 65 -30 40 -46 43 -68 14
-98 -13 -15 -38 -53 -56 -84 -37 -66 -90 -113 -176 -156 -67 -33 -488 -192
-510 -192 -7 0 -17 -5 -21 -11 -5 -8 59 -10 237 -6 207 4 256 8 322 25 147 40
289 133 302 199 14 66 20 77 51 83 74 16 142 88 129 139 -4 14 -63 84 -134
156 -184 189 -172 168 -125 213 l39 37 152 -152 c146 -145 153 -154 153 -192
l0 -39 128 -85 c322 -215 665 -336 1110 -392 l52 -7 0 195 c0 106 3 228 6 270
7 74 6 76 -17 80 -13 3 -78 14 -144 26 -420 72 -825 276 -1146 578 -36 35 -69
60 -73 56z m84 -134 c168 -158 482 -353 697 -435 119 -44 414 -124 460 -124 2
0 3 -20 3 -44 l0 -43 -92 22 c-163 38 -379 116 -522 187 -150 75 -309 165
-367 207 -99 72 -159 120 -211 169 l-58 55 17 28 c10 16 18 29 18 29 0 0 25
-23 55 -51z"/>
<path d="M4950 2864 c-22 -6 -17 -682 6 -725 36 -71 143 -79 201 -15 l33 36 0
350 0 350 -22 0 -23 0 0 -341 0 -341 -28 -24 c-35 -30 -78 -31 -103 -3 -18 20
-19 43 -22 370 -2 262 -6 349 -15 348 -7 -1 -19 -3 -27 -5z"/>
<path d="M2880 7603 c0 -35 33 -103 68 -139 29 -30 98 -72 105 -64 29 31 -1
92 -87 183 -52 54 -86 62 -86 20z m170 -163 c0 -11 -4 -20 -9 -20 -5 0 -7 9
-4 20 3 11 7 20 9 20 2 0 4 -9 4 -20z"/>
<path d="M7258 7586 c-24 -18 -42 -38 -40 -45 1 -6 -3 -10 -9 -8 -17 3 -78
-79 -75 -100 5 -31 49 -39 96 -18 49 22 84 64 99 120 25 93 4 109 -71 51z
m-18 -150 c0 -2 -7 -7 -16 -10 -8 -3 -12 -2 -9 4 6 10 25 14 25 6z m-63 -12
c-3 -3 -12 -4 -19 -1 -8 3 -5 6 6 6 11 1 17 -2 13 -5z"/>
<path d="M7584 7279 c-25 -9 -71 -62 -92 -106 -21 -44 -8 -56 67 -61 56 -4 62
-2 91 26 66 66 16 172 -66 141z"/>
<path d="M2590 7282 c-52 -17 -65 -73 -29 -123 27 -38 68 -59 117 -59 51 0 70
20 53 57 -32 70 -107 137 -141 125z"/>
<path d="M7534 3136 c-29 -13 -74 -59 -74 -77 0 -5 19 -22 42 -39 33 -24 51
-30 92 -30 83 0 99 8 92 42 -8 40 -41 85 -76 103 -35 18 -37 18 -76 1z"/>
<path d="M7133 2754 c-16 -7 -16 -62 0 -91 18 -32 56 -58 111 -77 64 -22 90
-14 82 25 -7 38 -50 105 -78 123 -25 16 -96 28 -115 20z"/>
</g>
</svg>
